<svg width="20" height="20" viewBox="0 0 20 20" fill="none" xmlns="http://www.w3.org/2000/svg">
<path d="M12.9501 9.40832L8.2334 4.69999C8.15593 4.62188 8.06376 4.55989 7.96221 4.51758C7.86066 4.47527 7.75174 4.45349 7.64173 4.45349C7.53172 4.45349 7.4228 4.47527 7.32125 4.51758C7.2197 4.55989 7.12754 4.62188 7.05007 4.69999C6.89486 4.85613 6.80774 5.06733 6.80774 5.28749C6.80774 5.50764 6.89486 5.71885 7.05007 5.87499L11.1751 10.0417L7.05007 14.1667C6.89486 14.3228 6.80774 14.534 6.80774 14.7542C6.80774 14.9743 6.89486 15.1855 7.05007 15.3417C7.12725 15.4204 7.21928 15.483 7.32085 15.526C7.42241 15.5689 7.53148 15.5912 7.64173 15.5917C7.75199 15.5912 7.86106 15.5689 7.96262 15.526C8.06418 15.483 8.15622 15.4204 8.2334 15.3417L12.9501 10.6333C13.0347 10.5553 13.1022 10.4606 13.1483 10.3552C13.1945 10.2497 13.2183 10.1359 13.2183 10.0208C13.2183 9.90574 13.1945 9.7919 13.1483 9.68648C13.1022 9.58107 13.0347 9.48636 12.9501 9.40832V9.40832Z" fill="#535353"/>
</svg>
