<svg width="21" height="21" viewBox="0 0 21 21" fill="none" xmlns="http://www.w3.org/2000/svg">
<path d="M14.1439 10.7155C15.1601 9.94416 15.9018 8.88642 16.2658 7.68944C16.6299 6.49246 16.5982 5.21576 16.1752 4.03696C15.7522 2.85817 14.9588 1.83589 13.9056 1.11235C12.8523 0.388815 11.5915 0 10.2985 0C9.00558 0 7.74476 0.388815 6.6915 1.11235C5.63824 1.83589 4.84492 2.85817 4.4219 4.03696C3.99887 5.21576 3.96719 6.49246 4.33125 7.68944C4.69532 8.88642 5.43702 9.94416 6.45318 10.7155C4.71197 11.3885 3.1927 12.5048 2.05734 13.9454C0.921984 15.386 0.213096 17.0968 0.00625191 18.8955C-0.00872053 19.0268 0.00326324 19.1597 0.0415187 19.2866C0.0797742 19.4134 0.143552 19.5318 0.229212 19.6348C0.402208 19.843 0.65383 19.9763 0.928723 20.0055C1.20362 20.0347 1.47926 19.9573 1.69502 19.7904C1.91078 19.6235 2.04898 19.3807 2.07922 19.1155C2.30682 17.1607 3.27293 15.3553 4.79296 14.0443C6.313 12.7333 8.2804 12.0085 10.3193 12.0085C12.3581 12.0085 14.3255 12.7333 15.8456 14.0443C17.3656 15.3553 18.3317 17.1607 18.5593 19.1155C18.5875 19.3612 18.709 19.5882 18.9004 19.7525C19.0918 19.9169 19.3396 20.007 19.5958 20.0055H19.7098C19.9815 19.9753 20.2298 19.8428 20.4007 19.6367C20.5715 19.4307 20.6511 19.1679 20.6219 18.9055C20.4141 17.1017 19.7014 15.3865 18.5602 13.9437C17.419 12.5009 15.8924 11.385 14.1439 10.7155ZM10.2985 10.0055C9.47855 10.0055 8.67698 9.7709 7.99518 9.33138C7.31339 8.89185 6.78199 8.26714 6.46819 7.53623C6.1544 6.80533 6.07229 6.00106 6.23227 5.22514C6.39224 4.44921 6.7871 3.73648 7.36692 3.17707C7.94674 2.61766 8.68548 2.2367 9.48971 2.08236C10.2939 1.92801 11.1276 2.00723 11.8851 2.30998C12.6427 2.61273 13.2902 3.12542 13.7458 3.78322C14.2013 4.44101 14.4445 5.21437 14.4445 6.0055C14.4445 7.06636 14.0077 8.08378 13.2302 8.83392C12.4526 9.58407 11.3981 10.0055 10.2985 10.0055Z" fill="#111827"/>
</svg>
